HIERARCHY
ROOT Hips
{
	OFFSET 0.000000 0.000000 0.000000
	CHANNELS 6 Xposition Yposition Zposition Zrotation Yrotation Xrotation 
	JOINT LHipJoint
	{
		OFFSET 0.000000 0.000000 0.000000
		CHANNELS 3 Zrotation Yrotation Xrotation
		JOINT LeftUpLeg
		{
			OFFSET 1.363060 -1.794630 0.839290
			CHANNELS 3 Zrotation Yrotation Xrotation
			JOINT LeftLeg
			{
				OFFSET 2.448110 -6.726130 0.000000
				CHANNELS 3 Zrotation Yrotation Xrotation
				JOINT LeftFoot
				{
					OFFSET 2.562200 -7.039590 0.000000
					CHANNELS 3 Zrotation Yrotation Xrotation
					JOINT LeftToeBase
					{
						OFFSET 0.157640 -0.433110 2.322550
						CHANNELS 3 Zrotation Yrotation Xrotation
						End Site
						{
							OFFSET 0.000000 0.000000 0.000000
						}
					}
				}
			}
		}
	}
	JOINT RHipJoint
	{
		OFFSET 0.000000 0.000000 0.000000
		CHANNELS 3 Zrotation Yrotation Xrotation
		JOINT RightUpLeg
		{
			OFFSET -1.305520 -1.794630 0.839290
			CHANNELS 3 Zrotation Yrotation Xrotation
			JOINT RightLeg
			{
				OFFSET -2.542530 -6.985550 0.000000
				CHANNELS 3 Zrotation Yrotation Xrotation
				JOINT RightFoot
				{
					OFFSET -2.568260 -7.056230 0.000000
					CHANNELS 3 Zrotation Yrotation Xrotation
					JOINT RightToeBase
					{
						OFFSET -0.164730 -0.452590 2.363150
						CHANNELS 3 Zrotation Yrotation Xrotation
						End Site
						{
							OFFSET 0.000000 0.000000 0.000000
						}
					}
				}
			}
		}
	}
	JOINT LowerBack
	{
		OFFSET 0.000000 0.000000 0.000000
		CHANNELS 3 Zrotation Yrotation Xrotation
		JOINT Spine
		{
			OFFSET 0.028270 2.035590 -0.193380
			CHANNELS 3 Zrotation Yrotation Xrotation
			JOINT Spine1
			{
				OFFSET 0.056720 2.048850 -0.042750
				CHANNELS 3 Zrotation Yrotation Xrotation
				JOINT Neck
				{
					OFFSET 0.000000 0.000000 0.000000
					CHANNELS 3 Zrotation Yrotation Xrotation
					JOINT Neck1
					{
						OFFSET -0.054170 1.746240 0.172020
						CHANNELS 3 Zrotation Yrotation Xrotation
						JOINT Head
						{
							OFFSET 0.104070 1.761360 -0.123970
							CHANNELS 3 Zrotation Yrotation Xrotation
							End Site
							{
								OFFSET 0.000000 0.000000 0.000000
							}
						}
					}
				}
				JOINT LeftShoulder
				{
					OFFSET 0.000000 0.000000 0.000000
					CHANNELS 3 Zrotation Yrotation Xrotation
					JOINT LeftArm
					{
						OFFSET 3.362410 1.200890 -0.311210
						CHANNELS 3 Zrotation Yrotation Xrotation
						JOINT LeftForeArm
						{
							OFFSET 4.983000 -0.000000 -0.000000
							CHANNELS 3 Zrotation Yrotation Xrotation
							JOINT LeftHand
							{
								OFFSET 3.483560 -0.000000 -0.000000
								CHANNELS 3 Zrotation Yrotation Xrotation
								JOINT LeftFingerBase
								{
									OFFSET 0.000000 0.000000 0.000000
									CHANNELS 3 Zrotation Yrotation Xrotation
									JOINT LeftHandIndex1
									{
										OFFSET 0.715260 -0.000000 -0.000000
										CHANNELS 3 Zrotation Yrotation Xrotation
										End Site
										{
											OFFSET 0.000000 0.000000 0.000000
										}
									}
								}
								JOINT LThumb
								{
									OFFSET 0.000000 0.000000 0.000000
									CHANNELS 3 Zrotation Yrotation Xrotation
									End Site
									{
										OFFSET 0.000000 0.000000 0.000000
									}
								}
							}
						}
					}
				}
				JOINT RightShoulder
				{
					OFFSET 0.000000 0.000000 0.000000
					CHANNELS 3 Zrotation Yrotation Xrotation
					JOINT RightArm
					{
						OFFSET -3.136600 1.374050 -0.404650
						CHANNELS 3 Zrotation Yrotation Xrotation
						JOINT RightForeArm
						{
							OFFSET -5.241900 -0.000000 -0.000000
							CHANNELS 3 Zrotation Yrotation Xrotation
							JOINT RightHand
							{
								OFFSET -3.444170 -0.000000 -0.000000
								CHANNELS 3 Zrotation Yrotation Xrotation
								JOINT RightFingerBase
								{
									OFFSET 0.000000 0.000000 0.000000
									CHANNELS 3 Zrotation Yrotation Xrotation
									JOINT RightHandIndex1
									{
										OFFSET -0.622530 -0.000000 -0.000000
										CHANNELS 3 Zrotation Yrotation Xrotation
										End Site
										{
											OFFSET 0.000000 0.000000 0.000000
										}
									}
								}
								JOINT RThumb
								{
									OFFSET 0.000000 0.000000 0.000000
									CHANNELS 3 Zrotation Yrotation Xrotation
									End Site
									{
										OFFSET 0.000000 0.000000 0.000000
									}
								}
							}
						}
					}
				}
			}
		}
	}
}
MOTION
Frames: 7
Frame Time: 0.008333
-19.096598 15.836369 0.194406 11.782583 84.885411 28.604491 -8.929830 -1.073398 5.022555 -9.611449 -5.428197 -61.943546 -1.021414 1.951201 42.670630 1.460816 6.179750 -5.397936 0.677600 0.000001 -18.976500 10.446768 -6.252636 1.484504 3.300948 -4.315504 14.000409 1.419073 -1.352814 11.505079 0.306315 5.163513 13.490604 1.598600 0.000001 -87.011700 -12.028011 3.736682 -8.147771 -3.041732 4.654745 -5.033078 -3.142671 4.435613 -0.867054 1.778767 -2.641412 -8.462071 -0.668039 -0.038291 -0.213458 0.000000 0.000000 0.000000 0.021786 20.092602 2.467806 -31.951387 30.098956 -0.675024 -5.030417 0.742406 -0.022042 7.274429 7.382805 0.486180 -0.212035 -0.049598 -0.000000 0.000000 0.000000 0.000000 0.000000 0.000000 0.000000 -4.580102 4.303936 -0.404816 39.669675 64.076230 22.643888 0.552121 77.473207 -0.028905 -1.660806 8.770387 -0.129135 -0.082633 -0.601226 0.000000 0.000000 0.000000 0.000000 0.000000 0.000000 0.000000 
-18.866292 15.858808 0.181074 11.627771 84.475200 27.903494 -9.013982 -1.028523 4.700554 -10.225248 -4.488211 -60.949574 -0.991262 2.018969 43.778670 1.477731 6.272401 -5.872173 0.588799 -0.000000 -19.080101 10.521342 -6.315923 1.486842 2.753801 -4.228424 13.071239 1.102020 -1.691219 14.821033 0.148875 5.223158 16.511908 1.964500 0.000000 -87.028800 -12.205268 3.740480 -7.932089 -3.135599 4.664159 -4.984334 -3.389670 4.459046 -0.796174 2.309809 -2.255002 -8.561806 -0.857401 -0.051187 -0.255878 0.000000 0.000000 0.000000 -0.680046 20.155627 2.544303 -32.996979 28.790629 0.131764 -5.151023 0.379498 -0.022133 6.626942 7.421463 0.445287 -0.201532 -0.042906 -0.000000 0.000000 0.000000 0.000000 0.000000 0.000000 0.000000 -3.412329 5.003938 -0.071468 43.183753 62.824524 25.758618 0.621963 77.066652 -0.024534 -1.611084 8.716381 -0.125516 -0.062634 -0.589781 0.000000 0.000000 0.000000 0.000000 0.000000 0.000000 0.000000 
-18.640929 15.878399 0.165254 11.718130 84.086305 27.385952 -9.086507 -0.975134 4.355611 -10.868695 -3.511972 -59.832314 -0.978194 2.072334 44.821015 1.483137 6.292936 -6.473057 0.475301 0.000000 -19.212000 10.645771 -6.333430 1.436507 2.084665 -4.419238 11.932800 0.775674 -1.990802 18.490817 -0.048162 5.212780 19.295043 2.302600 -0.000000 -85.923401 -12.343487 3.738427 -7.627836 -3.218642 4.662605 -4.926595 -3.648693 4.472735 -0.764034 2.831726 -1.838929 -8.632920 -1.064346 -0.065923 -0.292082 0.000000 0.000000 0.000000 -1.384912 20.159134 2.645483 -34.122406 27.398949 1.063678 -5.265218 -0.087623 -0.021708 5.970265 7.328803 0.396306 -0.192061 -0.036528 -0.000000 0.000000 0.000000 0.000000 0.000000 0.000000 0.000000 -2.206330 5.779447 0.205302 46.664716 61.234131 28.668114 0.693260 76.509577 -0.020438 -1.608576 8.677245 -0.126112 -0.040980 -0.577065 0.000000 0.000000 0.000000 0.000000 0.000000 0.000000 0.000000 
-18.420529 15.894264 0.147007 12.105513 83.741856 27.122878 -9.142534 -0.914305 3.995916 -11.534674 -2.537340 -58.621266 -0.978757 2.111750 45.816686 1.480845 6.255471 -7.206744 0.340000 0.000000 -19.344601 10.816649 -6.301862 1.335808 1.317236 -4.859302 10.604191 0.457236 -2.247313 22.460369 -0.285006 4.920599 21.693008 2.484100 0.000000 -83.805000 -12.444665 3.720539 -7.240842 -3.289467 4.640460 -4.863856 -3.917731 4.465962 -0.784227 3.337432 -1.397239 -8.667805 -1.287079 -0.082476 -0.319557 0.000000 0.000000 0.000000 -2.089664 20.094914 2.766599 -35.300880 25.953632 2.154087 -5.367281 -0.685950 -0.020773 5.333714 7.115300 0.344236 -0.183610 -0.031306 0.000000 0.000000 0.000000 0.000000 0.000000 0.000000 0.000000 -0.972585 6.606405 0.411096 50.062923 59.301178 31.294387 0.765754 75.763167 -0.016961 -1.677063 8.664418 -0.132929 -0.018377 -0.563941 0.000000 0.000000 0.000000 0.000000 0.000000 0.000000 0.000000 
-18.205433 15.905914 0.126376 12.778241 83.456414 27.121742 -9.180955 -0.846631 3.629914 -12.209799 -1.595786 -57.346114 -0.989727 2.139107 46.779380 1.475103 6.176318 -8.074224 0.186400 0.000000 -19.457700 11.021649 -6.220700 1.187491 0.493855 -5.493441 9.119699 0.161816 -2.466864 26.660466 -0.557460 4.128366 23.574883 2.359300 0.000000 -80.918201 -12.509235 3.678482 -6.779339 -3.347507 4.589421 -4.796165 -4.196342 4.429439 -0.852904 3.830845 -0.951558 -8.674353 -1.524999 -0.100653 -0.340338 0.000000 0.000000 0.000000 -2.790597 19.997023 2.899608 -36.510267 24.421947 3.443163 -5.450739 -1.417431 -0.019385 4.750343 6.801349 0.293576 -0.175933 -0.027854 -0.000000 0.000000 0.000000 0.000000 0.000000 0.000000 0.000000 0.304969 7.438517 0.543680 53.291869 57.082230 33.577576 0.838012 74.787154 -0.014486 -1.850418 8.703725 -0.149070 0.004470 -0.551490 -0.000000 0.000000 0.000000 0.000000 0.000000 0.000000 0.000000 
-17.995413 15.913095 0.103771 13.776312 83.249251 27.437424 -9.198244 -0.771663 3.267525 -12.888510 -0.723753 -56.030750 -1.008024 2.155614 47.716763 1.469969 6.073523 -9.065036 0.019100 0.000000 -19.536899 11.254557 -6.094331 0.991075 -0.359475 -6.295160 7.499989 -0.101906 -2.664551 31.044437 -0.858773 2.691340 24.817768 1.819200 -0.000000 -77.239700 -12.538336 3.607041 -6.251256 -3.391422 4.504746 -4.729107 -4.477870 4.357368 -0.987751 4.296184 -0.491830 -8.636351 -1.770843 -0.120105 -0.349202 0.000000 0.000000 0.000000 -3.501018 19.799812 3.035848 -37.718834 22.913283 4.931691 -5.512156 -2.336407 -0.017622 4.254116 6.411694 0.248424 -0.168790 -0.026739 -0.000000 0.000000 0.000000 0.000000 0.000000 0.000000 0.000000 1.581155 8.264087 0.605902 56.365774 54.555662 35.457487 0.908967 73.561491 -0.012986 -2.115993 8.773555 -0.173239 0.026320 -0.539829 -0.000000 0.000000 0.000000 0.000000 0.000000 0.000000 0.000000 
-17.790287 15.916149 0.079135 15.023476 83.120348 28.008993 -9.197909 -0.689807 2.915566 -13.550258 0.060889 -54.694937 -1.031353 2.164470 48.628924 1.469404 5.964968 -10.167283 -0.158500 -0.000000 -19.578100 11.498505 -5.927263 0.752616 -1.187517 -7.185514 5.787951 -0.333133 -2.856700 35.527686 -1.182828 0.547393 25.333888 0.828500 -0.000001 -73.218000 -12.530203 3.504970 -5.669955 -3.421949 4.385093 -4.658719 -4.762599 4.247839 -1.163385 4.748577 -0.053362 -8.575238 -2.024849 -0.140471 -0.352181 0.000000 0.000000 0.000000 -4.224735 19.553194 3.163760 -38.906043 21.353733 6.603695 -5.545541 -3.416919 -0.015601 3.881633 5.979887 0.211878 -0.161597 -0.027812 -0.000000 0.000000 0.000000 0.000000 0.000000 0.000000 0.000000 2.895183 9.026648 0.618881 59.173257 51.836027 36.910467 0.975960 72.064311 -0.012699 -2.500088 8.914348 -0.209038 0.046640 -0.529729 -0.000000 0.000000 0.000000 0.000000 0.000000 0.000000 0.000000 
